<svg xmlns="http://www.w3.org/2000/svg" viewBox="0 0 120 120" width="120" height="120">
  <defs>
    <filter id="sh" x="-20%" y="-20%" width="140%" height="140%">
      <feDropShadow dx="0" dy="2.5" stdDeviation="2" flood-color="#1A1A1A" flood-opacity="0.2"/>
    </filter>
  </defs>
  <!-- 전구 (아이디어!) -->
  <g>
    <circle cx="100" cy="20" r="9" fill="#FFE066" stroke="#1A1A1A" stroke-width="2"/>
    <rect x="96" y="27" width="8" height="3" fill="#1A1A1A"/>
    <line x1="100" y1="6" x2="100" y2="10" stroke="#FFE066" stroke-width="2.5" stroke-linecap="round"/>
    <line x1="88" y1="14" x2="91" y2="16" stroke="#FFE066" stroke-width="2.5" stroke-linecap="round"/>
    <line x1="112" y1="14" x2="109" y2="16" stroke="#FFE066" stroke-width="2.5" stroke-linecap="round"/>
  </g>
  <rect x="40" y="100" width="40" height="12" rx="2" fill="#FCC419" stroke="#1A1A1A" stroke-width="1.5"/>
  <circle cx="60" cy="50" r="42" fill="#FFA94D" stroke="#1A1A1A" stroke-width="2" filter="url(#sh)"/>
  <path d="M22 40 Q34 16 50 20 Q60 14 70 20 Q86 16 98 40 Q90 28 80 26 Q70 18 60 22 Q50 18 40 26 Q30 28 22 40 Z"
        fill="#5C3317" stroke="#1A1A1A" stroke-width="1.8"/>
  <circle cx="46" cy="52" r="11" fill="none" stroke="#1A1A1A" stroke-width="2.4"/>
  <circle cx="74" cy="52" r="11" fill="none" stroke="#1A1A1A" stroke-width="2.4"/>
  <line x1="57" y1="52" x2="63" y2="52" stroke="#1A1A1A" stroke-width="2.4"/>
  <!-- 별눈 ✦ -->
  <g fill="#1A1A1A">
    <path d="M46 45 L48 51 L54 53 L48 55 L46 61 L44 55 L38 53 L44 51 Z"/>
    <path d="M74 45 L76 51 L82 53 L76 55 L74 61 L72 55 L66 53 L72 51 Z"/>
  </g>
  <g fill="#fff">
    <circle cx="46" cy="53" r="1.3"/>
    <circle cx="74" cy="53" r="1.3"/>
  </g>
  <path d="M28 64 C 25 60, 20 62, 22 68 C 23 71, 28 74, 30 76 C 32 74, 37 71, 38 68 C 40 62, 35 60, 32 64 Z" fill="#FF5777"/>
  <path d="M84 64 C 81 60, 76 62, 78 68 C 79 71, 84 74, 86 76 C 88 74, 93 71, 94 68 C 96 62, 91 60, 88 64 Z" fill="#FF5777"/>
  <!-- 활짝 ω 입 -->
  <path d="M50 72 Q55 80 60 75 Q65 80 70 72" fill="none" stroke="#1A1A1A" stroke-width="2.5" stroke-linecap="round" stroke-linejoin="round"/>
</svg>
