<svg xmlns="http://www.w3.org/2000/svg" viewBox="0 0 120 120" width="120" height="120">
  <defs>
    <filter id="sh" x="-20%" y="-20%" width="140%" height="140%">
      <feDropShadow dx="0" dy="2.5" stdDeviation="2" flood-color="#1A1A1A" flood-opacity="0.2"/>
    </filter>
  </defs>
  <!-- 작은 책 (몸이 아주 작음) -->
  <rect x="40" y="100" width="40" height="12" rx="2" fill="#FCC419" stroke="#1A1A1A" stroke-width="1.5"/>
  <!-- 큰 머리 -->
  <circle cx="60" cy="48" r="42" fill="#FF922B" stroke="#1A1A1A" stroke-width="2" filter="url(#sh)"/>
  <!-- 동글한 머리카락 더미 -->
  <path d="M22 38 Q34 14 50 18 Q60 12 70 18 Q86 14 98 38 Q90 26 80 24 Q70 16 60 20 Q50 16 40 24 Q30 26 22 38 Z"
        fill="#5C3317" stroke="#1A1A1A" stroke-width="1.8"/>
  <!-- 안경 (하트형) -->
  <circle cx="46" cy="50" r="11" fill="none" stroke="#1A1A1A" stroke-width="2.4"/>
  <circle cx="74" cy="50" r="11" fill="none" stroke="#1A1A1A" stroke-width="2.4"/>
  <line x1="57" y1="50" x2="63" y2="50" stroke="#1A1A1A" stroke-width="2.4"/>
  <!-- 큰 눈 -->
  <g fill="#1A1A1A">
    <circle cx="46" cy="51" r="6"/>
    <circle cx="74" cy="51" r="6"/>
  </g>
  <g fill="#fff">
    <circle cx="48" cy="48" r="2.2"/>
    <circle cx="76" cy="48" r="2.2"/>
    <circle cx="44" cy="54" r="1.2"/>
    <circle cx="72" cy="54" r="1.2"/>
  </g>
  <!-- 하트 볼 -->
  <path d="M28 64 C 25 60, 20 62, 22 68 C 23 71, 28 74, 30 76 C 32 74, 37 71, 38 68 C 40 62, 35 60, 32 64 Z" fill="#FF6B7A"/>
  <path d="M84 64 C 81 60, 76 62, 78 68 C 79 71, 84 74, 86 76 C 88 74, 93 71, 94 68 C 96 62, 91 60, 88 64 Z" fill="#FF6B7A"/>
  <!-- ω 입 -->
  <path d="M54 70 Q57 76 60 73 Q63 76 66 70" fill="none" stroke="#1A1A1A" stroke-width="2.2" stroke-linecap="round" stroke-linejoin="round"/>
</svg>
