<svg xmlns="http://www.w3.org/2000/svg" viewBox="0 0 120 120" width="120" height="120">
  <defs>
    <radialGradient id="bcB" cx="50%" cy="40%" r="65%">
      <stop offset="0%" stop-color="#EEE8FF"/>
      <stop offset="100%" stop-color="#D8D2F7"/>
    </radialGradient>
  </defs>
  <path d="M30 80 Q12 80 12 64 Q12 52 26 50 Q26 34 44 32 Q50 20 60 20 Q70 20 76 32 Q94 34 94 50 Q108 52 108 64 Q108 80 90 80 Z"
        fill="url(#bcB)" stroke="#C2B7EE" stroke-width="0.6" stroke-linejoin="round"/>
  <ellipse cx="40" cy="62" rx="6" ry="3.5" fill="#FFCCD5" opacity="0.7"/>
  <ellipse cx="80" cy="62" rx="6" ry="3.5" fill="#FFCCD5" opacity="0.7"/>
  <circle cx="50" cy="54" r="2.2" fill="#5B4636"/>
  <circle cx="70" cy="54" r="2.2" fill="#5B4636"/>
  <path d="M45 48 Q50 47 55 49" fill="none" stroke="#5B4636" stroke-width="1.2" stroke-linecap="round"/>
  <path d="M65 49 Q70 47 75 48" fill="none" stroke="#5B4636" stroke-width="1.2" stroke-linecap="round"/>
  <ellipse cx="60" cy="66" rx="2" ry="1.2" fill="#5B4636"/>
  <line x1="46" y1="82" x2="46" y2="92" stroke="#C2B7EE" stroke-width="2" stroke-linecap="round"/>
  <line x1="74" y1="82" x2="74" y2="92" stroke="#C2B7EE" stroke-width="2" stroke-linecap="round"/>
</svg>
