<svg xmlns="http://www.w3.org/2000/svg" viewBox="0 0 120 120" width="120" height="120">
  <defs>
    <filter id="sh" x="-20%" y="-20%" width="140%" height="140%">
      <feDropShadow dx="0" dy="2.5" stdDeviation="2" flood-color="#1A1A1A" flood-opacity="0.18"/>
    </filter>
  </defs>
  <!-- 위 작은 보조 구름 -->
  <ellipse cx="100" cy="28" rx="10" ry="6" fill="#D0BFFF" stroke="#1A1A1A" stroke-width="1.5"/>
  <ellipse cx="20" cy="34" rx="8" ry="5" fill="#D0BFFF" stroke="#1A1A1A" stroke-width="1.5"/>
  <path d="M28 84 Q8 84 8 64 Q8 50 24 48 Q24 30 44 28 Q50 14 60 14 Q70 14 76 28 Q96 30 96 48 Q112 50 112 64 Q112 84 92 84 Z"
        fill="#C5B6FF" stroke="#1A1A1A" stroke-width="2" stroke-linejoin="round" filter="url(#sh)"/>
  <path d="M36 64 C 33 60, 28 62, 30 68 C 31 71, 36 74, 38 76 C 40 74, 45 71, 46 68 C 48 62, 43 60, 40 64 Z" fill="#FF5777"/>
  <path d="M76 64 C 73 60, 68 62, 70 68 C 71 71, 76 74, 78 76 C 80 74, 85 71, 86 68 C 88 62, 83 60, 80 64 Z" fill="#FF5777"/>
  <g fill="#1A1A1A">
    <path d="M48 48 L50 54 L56 56 L50 58 L48 64 L46 58 L40 56 L46 54 Z"/>
    <path d="M72 48 L74 54 L80 56 L74 58 L72 64 L70 58 L64 56 L70 54 Z"/>
  </g>
  <g fill="#fff">
    <circle cx="48" cy="56" r="1.4"/>
    <circle cx="72" cy="56" r="1.4"/>
  </g>
  <path d="M50 70 Q55 78 60 73 Q65 78 70 70" fill="none" stroke="#1A1A1A" stroke-width="2.5" stroke-linecap="round" stroke-linejoin="round"/>
  <ellipse cx="44" cy="92" rx="6" ry="4" fill="#9775FA" stroke="#1A1A1A" stroke-width="1.5"/>
  <ellipse cx="76" cy="92" rx="6" ry="4" fill="#9775FA" stroke="#1A1A1A" stroke-width="1.5"/>
</svg>
