<svg xmlns="http://www.w3.org/2000/svg" viewBox="0 0 120 120" width="120" height="120">
  <defs>
    <filter id="sh" x="-20%" y="-20%" width="140%" height="140%">
      <feDropShadow dx="0" dy="3" stdDeviation="2" flood-color="#000" flood-opacity="0.18"/>
    </filter>
  </defs>
  <path d="M30 78 Q12 78 12 62 Q12 50 24 48 Q24 32 42 30 Q48 18 60 18 Q72 18 78 30 Q96 32 96 48 Q108 50 108 62 Q108 78 90 78 Z"
        fill="#B197FC" stroke="#1A1A1A" stroke-width="3" stroke-linejoin="round" filter="url(#sh)"/>
  <circle cx="38" cy="60" r="4" fill="#FFA8A8" opacity="0.7"/>
  <circle cx="82" cy="60" r="4" fill="#FFA8A8" opacity="0.7"/>
  <circle cx="48" cy="52" r="5" fill="#1A1A1A"/>
  <circle cx="72" cy="52" r="5" fill="#1A1A1A"/>
  <circle cx="49.5" cy="50.5" r="1.6" fill="#fff"/>
  <circle cx="73.5" cy="50.5" r="1.6" fill="#fff"/>
  <path d="M52 64 Q60 70 68 64" fill="none" stroke="#1A1A1A" stroke-width="3" stroke-linecap="round"/>
  <line x1="44" y1="82" x2="44" y2="98" stroke="#1A1A1A" stroke-width="3" stroke-linecap="round"/>
  <line x1="76" y1="82" x2="76" y2="98" stroke="#1A1A1A" stroke-width="3" stroke-linecap="round"/>
  <line x1="40" y1="98" x2="48" y2="98" stroke="#1A1A1A" stroke-width="3" stroke-linecap="round"/>
  <line x1="72" y1="98" x2="80" y2="98" stroke="#1A1A1A" stroke-width="3" stroke-linecap="round"/>
</svg>
