<svg xmlns="http://www.w3.org/2000/svg" viewBox="0 0 120 120" width="120" height="120">
  <defs>
    <filter id="sh" x="-20%" y="-20%" width="140%" height="140%">
      <feDropShadow dx="0" dy="2.5" stdDeviation="2" flood-color="#1A1A1A" flood-opacity="0.18"/>
    </filter>
    <radialGradient id="dgEM" cx="40%" cy="35%" r="60%">
      <stop offset="0%" stop-color="#A5D8FF"/>
      <stop offset="100%" stop-color="#3BA0F0"/>
    </radialGradient>
  </defs>
  <!-- 튀는 작은 물방울 -->
  <g fill="#74C0FC" stroke="#1A1A1A" stroke-width="1.5">
    <ellipse cx="14" cy="46" rx="3" ry="5"/>
    <ellipse cx="106" cy="50" rx="3" ry="5"/>
    <ellipse cx="20" cy="92" rx="2.5" ry="4"/>
  </g>
  <path d="M60 8 C 60 8, 18 50, 18 80 C 18 100, 36 114, 60 114 C 84 114, 102 100, 102 80 C 102 50, 60 8, 60 8 Z"
        fill="url(#dgEM)" stroke="#1A1A1A" stroke-width="2" stroke-linejoin="round" filter="url(#sh)"/>
  <ellipse cx="42" cy="56" rx="6" ry="9" fill="#fff" opacity="0.6"/>
  <path d="M36 80 C 33 76, 28 78, 30 84 C 31 87, 36 90, 38 92 C 40 90, 45 87, 46 84 C 48 78, 43 76, 40 80 Z" fill="#FF5777"/>
  <path d="M76 80 C 73 76, 68 78, 70 84 C 71 87, 76 90, 78 92 C 80 90, 85 87, 86 84 C 88 78, 83 76, 80 80 Z" fill="#FF5777"/>
  <!-- ^^ 반쪽 눈 (행복) -->
  <path d="M42 68 Q48 62 54 68" fill="none" stroke="#1A1A1A" stroke-width="3" stroke-linecap="round"/>
  <path d="M66 68 Q72 62 78 68" fill="none" stroke="#1A1A1A" stroke-width="3" stroke-linecap="round"/>
  <!-- 활짝 ω -->
  <path d="M50 84 Q55 92 60 87 Q65 92 70 84" fill="none" stroke="#1A1A1A" stroke-width="2.5" stroke-linecap="round" stroke-linejoin="round"/>
</svg>
