<svg xmlns="http://www.w3.org/2000/svg" viewBox="0 0 120 120" width="120" height="120">
  <defs>
    <filter id="sh" x="-20%" y="-20%" width="140%" height="140%">
      <feDropShadow dx="0" dy="2.5" stdDeviation="2" flood-color="#1A1A1A" flood-opacity="0.18"/>
    </filter>
  </defs>
  <!-- 머리 1.5배 - 화면 거의 가득 -->
  <polygon points="60,6 75,46 116,46 84,68 96,112 60,86 24,112 36,68 4,46 45,46"
           fill="#FFD43B" stroke="#1A1A1A" stroke-width="2" stroke-linejoin="round" filter="url(#sh)"/>
  <!-- 하트 볼 -->
  <path d="M36 66 C 33 62, 28 64, 30 70 C 31 73, 36 76, 38 78 C 40 76, 45 73, 46 70 C 48 64, 43 62, 40 66 Z" fill="#FF6B7A"/>
  <path d="M76 66 C 73 62, 68 64, 70 70 C 71 73, 76 76, 78 78 C 80 76, 85 73, 86 70 C 88 64, 83 62, 80 66 Z" fill="#FF6B7A"/>
  <!-- 큰 별눈 -->
  <g fill="#1A1A1A">
    <circle cx="48" cy="56" r="8"/>
    <circle cx="72" cy="56" r="8"/>
  </g>
  <g fill="#fff">
    <circle cx="50" cy="53" r="3"/>
    <circle cx="74" cy="53" r="3"/>
    <circle cx="46" cy="59" r="1.5"/>
    <circle cx="70" cy="59" r="1.5"/>
  </g>
  <!-- ω 입 -->
  <path d="M54 70 Q57 76 60 73 Q63 76 66 70" fill="none" stroke="#1A1A1A" stroke-width="2.2" stroke-linecap="round" stroke-linejoin="round"/>
</svg>
