<svg xmlns="http://www.w3.org/2000/svg" viewBox="0 0 120 120" width="120" height="120">
  <g stroke="#37B24D" stroke-width="3" stroke-linecap="round" opacity="0.7">
    <line x1="14" y1="30" x2="22" y2="34"/>
    <line x1="106" y1="30" x2="98" y2="34"/>
    <line x1="60" y1="6" x2="60" y2="14"/>
  </g>
  <ellipse cx="60" cy="108" rx="42" ry="6" fill="#8B5A2B" stroke="#1A1A1A" stroke-width="2"/>
  <path d="M60 108 L60 70" stroke="#37B24D" stroke-width="6" stroke-linecap="round"/>
  <!-- 잎 펼침 (더 넓게) -->
  <path d="M60 75 Q35 65 14 44 Q34 38 58 60 Z" fill="#51CF66" stroke="#1A1A1A" stroke-width="2.5" stroke-linejoin="round"/>
  <path d="M60 75 Q85 65 106 44 Q86 38 62 60 Z" fill="#51CF66" stroke="#1A1A1A" stroke-width="2.5" stroke-linejoin="round"/>
  <circle cx="60" cy="48" r="28" fill="#69DB7C" stroke="#1A1A1A" stroke-width="3"/>
  <circle cx="44" cy="55" r="5" fill="#FF8787" opacity="0.85"/>
  <circle cx="76" cy="55" r="5" fill="#FF8787" opacity="0.85"/>
  <!-- 결연한 눈 -->
  <path d="M44 42 Q51 38 58 42" fill="none" stroke="#1A1A1A" stroke-width="3.2" stroke-linecap="round"/>
  <path d="M62 42 Q69 38 76 42" fill="none" stroke="#1A1A1A" stroke-width="3.2" stroke-linecap="round"/>
  <circle cx="51" cy="46" r="4" fill="#1A1A1A"/>
  <circle cx="69" cy="46" r="4" fill="#1A1A1A"/>
  <!-- 활짝 입 -->
  <ellipse cx="60" cy="60" rx="10" ry="7" fill="#1A1A1A"/>
  <ellipse cx="60" cy="63" rx="6" ry="2.5" fill="#FF6B6B"/>
</svg>
