<svg xmlns="http://www.w3.org/2000/svg" viewBox="0 0 120 120" width="120" height="120">
  <defs>
    <filter id="sh" x="-20%" y="-20%" width="140%" height="140%">
      <feDropShadow dx="0" dy="2.5" stdDeviation="2" flood-color="#1A1A1A" flood-opacity="0.18"/>
    </filter>
  </defs>
  <!-- 광선 -->
  <g stroke="#FFD43B" stroke-width="3" stroke-linecap="round" opacity="0.85">
    <line x1="60" y1="2" x2="60" y2="8"/>
    <line x1="100" y1="14" x2="96" y2="20"/>
    <line x1="20" y1="14" x2="24" y2="20"/>
    <line x1="112" y1="56" x2="118" y2="56"/>
    <line x1="2" y1="56" x2="8" y2="56"/>
  </g>
  <polygon points="60,8 75,48 116,48 84,70 96,112 60,86 24,112 36,70 4,48 45,48"
           fill="#FFE066" stroke="#1A1A1A" stroke-width="2" stroke-linejoin="round" filter="url(#sh)"/>
  <!-- 진한 하트 볼 -->
  <path d="M36 68 C 33 64, 28 66, 30 72 C 31 75, 36 78, 38 80 C 40 78, 45 75, 46 72 C 48 66, 43 64, 40 68 Z" fill="#FF5777"/>
  <path d="M76 68 C 73 64, 68 66, 70 72 C 71 75, 76 78, 78 80 C 80 78, 85 75, 86 72 C 88 66, 83 64, 80 68 Z" fill="#FF5777"/>
  <!-- 별눈 ✦ -->
  <g fill="#1A1A1A">
    <path d="M48 50 L50 56 L56 58 L50 60 L48 66 L46 60 L40 58 L46 56 Z"/>
    <path d="M72 50 L74 56 L80 58 L74 60 L72 66 L70 60 L64 58 L70 56 Z"/>
  </g>
  <g fill="#fff">
    <circle cx="48" cy="58" r="1.4"/>
    <circle cx="72" cy="58" r="1.4"/>
  </g>
  <!-- 활짝 ω -->
  <path d="M50 72 Q55 80 60 75 Q65 80 70 72" fill="none" stroke="#1A1A1A" stroke-width="2.5" stroke-linecap="round" stroke-linejoin="round"/>
  <!-- 떠다니는 ✨ -->
  <g fill="#FFE066" stroke="#1A1A1A" stroke-width="1">
    <circle cx="106" cy="32" r="2.5"/>
    <circle cx="14" cy="38" r="2"/>
  </g>
</svg>
