<svg xmlns="http://www.w3.org/2000/svg" viewBox="0 0 240 160" width="240" height="160">
  <defs>
    <filter id="sh" x="-10%" y="-10%" width="120%" height="120%">
      <feDropShadow dx="0" dy="3" stdDeviation="2.5" flood-color="#1A1A1A" flood-opacity="0.18"/>
    </filter>
    <linearGradient id="pgC" x1="0%" y1="0%" x2="0%" y2="100%">
      <stop offset="0%" stop-color="#FFE066"/>
      <stop offset="100%" stop-color="#FCC419"/>
    </linearGradient>
    <radialGradient id="ddC2" cx="40%" cy="35%" r="60%">
      <stop offset="0%" stop-color="#A5D8FF"/>
      <stop offset="100%" stop-color="#4DABF7"/>
    </radialGradient>
  </defs>

  <!-- 배경 떠다니는 별 + 캐릭터 미니어처 -->

  <!-- 미니 별이 (좌상) -->
  <g transform="translate(28 22) scale(0.45)">
    <polygon points="60,6 75,46 116,46 84,68 96,112 60,86 24,112 36,68 4,46 45,46"
             fill="#FFD43B" stroke="#1A1A1A" stroke-width="3"/>
    <g fill="#1A1A1A"><circle cx="48" cy="56" r="8"/><circle cx="72" cy="56" r="8"/></g>
    <g fill="#fff"><circle cx="50" cy="53" r="3"/><circle cx="74" cy="53" r="3"/></g>
    <path d="M50 72 Q55 80 60 75 Q65 80 70 72" fill="none" stroke="#1A1A1A" stroke-width="3.5" stroke-linecap="round"/>
  </g>

  <!-- 미니 구름이 (우상) -->
  <g transform="translate(170 22) scale(0.4)">
    <path d="M28 84 Q8 84 8 64 Q8 50 24 48 Q24 30 44 28 Q50 14 60 14 Q70 14 76 28 Q96 30 96 48 Q112 50 112 64 Q112 84 92 84 Z"
          fill="#B197FC" stroke="#1A1A1A" stroke-width="3"/>
    <g fill="#1A1A1A"><circle cx="48" cy="54" r="8"/><circle cx="72" cy="54" r="8"/></g>
    <g fill="#fff"><circle cx="50" cy="51" r="3"/><circle cx="74" cy="51" r="3"/></g>
    <path d="M54 68 Q57 74 60 71 Q63 74 66 68" fill="none" stroke="#1A1A1A" stroke-width="3.5" stroke-linecap="round"/>
  </g>

  <!-- 미니 새싹이 (좌하) -->
  <g transform="translate(20 92) scale(0.4)">
    <ellipse cx="60" cy="114" rx="44" ry="5" fill="#8B5A2B" stroke="#1A1A1A" stroke-width="2"/>
    <path d="M60 114 L60 78" stroke="#37B24D" stroke-width="6" stroke-linecap="round"/>
    <path d="M60 86 Q38 80 22 64 Q40 56 58 72 Z" fill="#51CF66" stroke="#1A1A1A" stroke-width="2.5"/>
    <path d="M60 86 Q82 80 98 64 Q80 56 62 72 Z" fill="#51CF66" stroke="#1A1A1A" stroke-width="2.5"/>
    <circle cx="60" cy="44" r="34" fill="#69DB7C" stroke="#1A1A1A" stroke-width="3"/>
    <g fill="#1A1A1A"><circle cx="50" cy="46" r="8"/><circle cx="70" cy="46" r="8"/></g>
    <g fill="#fff"><circle cx="52" cy="43" r="3"/><circle cx="72" cy="43" r="3"/></g>
    <path d="M54 60 Q57 66 60 63 Q63 66 66 60" fill="none" stroke="#1A1A1A" stroke-width="3.5" stroke-linecap="round"/>
  </g>

  <!-- 미니 물방울 (우하) -->
  <g transform="translate(170 92) scale(0.4)">
    <path d="M60 8 C 60 8, 18 50, 18 80 C 18 100, 36 114, 60 114 C 84 114, 102 100, 102 80 C 102 50, 60 8, 60 8 Z"
          fill="url(#ddC2)" stroke="#1A1A1A" stroke-width="3"/>
    <ellipse cx="42" cy="56" rx="6" ry="9" fill="#fff" opacity="0.6"/>
    <g fill="#1A1A1A"><circle cx="48" cy="68" r="8"/><circle cx="72" cy="68" r="8"/></g>
    <g fill="#fff"><circle cx="50" cy="65" r="3"/><circle cx="74" cy="65" r="3"/></g>
    <path d="M54 82 Q57 88 60 85 Q63 88 66 82" fill="none" stroke="#1A1A1A" stroke-width="3.5" stroke-linecap="round"/>
  </g>

  <!-- 가운데 게임패드 -->
  <g filter="url(#sh)">
    <path d="M82 60 Q72 60 72 75 L72 105 Q72 120 87 120 L153 120 Q168 120 168 105 L168 75 Q168 60 158 60 Z"
          fill="url(#pgC)" stroke="#1A1A1A" stroke-width="2.5" stroke-linejoin="round"/>
    <rect x="86" y="88" width="20" height="5" rx="1" fill="#1A1A1A"/>
    <rect x="93" y="81" width="5" height="20" rx="1" fill="#1A1A1A"/>
    <circle cx="142" cy="86" r="4" fill="#FF6B7A" stroke="#1A1A1A" stroke-width="1.5"/>
    <circle cx="153" cy="96" r="4" fill="#4DABF7" stroke="#1A1A1A" stroke-width="1.5"/>
    <circle cx="131" cy="96" r="4" fill="#51CF66" stroke="#1A1A1A" stroke-width="1.5"/>
    <circle cx="142" cy="106" r="4" fill="#FFD43B" stroke="#1A1A1A" stroke-width="1.5"/>
    <rect x="113" y="78" width="22" height="14" rx="2" fill="#1A1A1A"/>
    <rect x="115" y="80" width="18" height="10" fill="#69DB7C"/>
  </g>
</svg>
