<svg xmlns="http://www.w3.org/2000/svg" viewBox="0 0 120 120" width="120" height="120">
  <defs>
    <filter id="sh" x="-20%" y="-20%" width="140%" height="140%">
      <feDropShadow dx="0" dy="2" stdDeviation="2" flood-color="#6B4F3A" flood-opacity="0.18"/>
    </filter>
  </defs>
  <path d="M30 80 Q12 80 12 64 Q12 52 26 50 Q26 34 44 32 Q50 20 60 20 Q70 20 76 32 Q94 34 94 50 Q108 52 108 64 Q108 80 90 80 Z"
        fill="#D0BFFF" stroke="#6B4F3A" stroke-width="1.5" stroke-linejoin="round" filter="url(#sh)"/>
  <ellipse cx="38" cy="62" rx="6" ry="4" fill="#FF8FA3" opacity="0.85"/>
  <ellipse cx="82" cy="62" rx="6" ry="4" fill="#FF8FA3" opacity="0.85"/>
  <ellipse cx="48" cy="54" rx="5" ry="6.5" fill="#3D2914"/>
  <ellipse cx="72" cy="54" rx="5" ry="6.5" fill="#3D2914"/>
  <ellipse cx="49.5" cy="51" rx="2" ry="2.5" fill="#fff"/>
  <ellipse cx="73.5" cy="51" rx="2" ry="2.5" fill="#fff"/>
  <circle cx="47" cy="57" r="0.8" fill="#fff"/>
  <circle cx="71" cy="57" r="0.8" fill="#fff"/>
  <path d="M55 67 Q60 71 65 67" fill="none" stroke="#3D2914" stroke-width="2" stroke-linecap="round"/>
  <path d="M95 28 L97 32 L101 34 L97 36 L95 40 L93 36 L89 34 L93 32 Z" fill="#fff" opacity="0.9"/>
  <!-- 작은 다리 -->
  <line x1="46" y1="82" x2="46" y2="94" stroke="#6B4F3A" stroke-width="2" stroke-linecap="round"/>
  <line x1="74" y1="82" x2="74" y2="94" stroke="#6B4F3A" stroke-width="2" stroke-linecap="round"/>
</svg>
