<svg xmlns="http://www.w3.org/2000/svg" viewBox="0 0 120 120" width="120" height="120">
  <defs>
    <filter id="sh" x="-20%" y="-20%" width="140%" height="140%">
      <feDropShadow dx="0" dy="2" stdDeviation="2" flood-color="#6B4F3A" flood-opacity="0.18"/>
    </filter>
    <radialGradient id="dgA" cx="40%" cy="35%" r="60%">
      <stop offset="0%" stop-color="#D0EBFF"/>
      <stop offset="100%" stop-color="#74C0FC"/>
    </radialGradient>
  </defs>
  <path d="M60 14 C 60 14, 22 52, 22 78 C 22 96, 38 110, 60 110 C 82 110, 98 96, 98 78 C 98 52, 60 14, 60 14 Z"
        fill="url(#dgA)" stroke="#6B4F3A" stroke-width="1.5" stroke-linejoin="round" filter="url(#sh)"/>
  <ellipse cx="42" cy="56" rx="6" ry="9" fill="#fff" opacity="0.55"/>
  <ellipse cx="40" cy="80" rx="6" ry="4" fill="#FF8FA3" opacity="0.85"/>
  <ellipse cx="80" cy="80" rx="6" ry="4" fill="#FF8FA3" opacity="0.85"/>
  <ellipse cx="50" cy="70" rx="5" ry="6.5" fill="#3D2914"/>
  <ellipse cx="70" cy="70" rx="5" ry="6.5" fill="#3D2914"/>
  <ellipse cx="51.5" cy="67" rx="2" ry="2.5" fill="#fff"/>
  <ellipse cx="71.5" cy="67" rx="2" ry="2.5" fill="#fff"/>
  <circle cx="49" cy="73" r="0.8" fill="#fff"/>
  <circle cx="73" cy="73" r="0.8" fill="#fff"/>
  <path d="M55 84 Q60 88 65 84" fill="none" stroke="#3D2914" stroke-width="2" stroke-linecap="round"/>
  <path d="M95 30 L97 34 L101 36 L97 38 L95 42 L93 38 L89 36 L93 34 Z" fill="#fff" opacity="0.9"/>
</svg>
