<svg xmlns="http://www.w3.org/2000/svg" viewBox="0 0 120 120" width="120" height="120">
  <defs>
    <filter id="sh" x="-20%" y="-20%" width="140%" height="140%">
      <feDropShadow dx="0" dy="2" stdDeviation="2" flood-color="#6B4F3A" flood-opacity="0.2"/>
    </filter>
  </defs>
  <!-- 책 -->
  <rect x="34" y="92" width="52" height="16" rx="2" fill="#FFD43B" stroke="#6B4F3A" stroke-width="1.5"/>
  <line x1="60" y1="92" x2="60" y2="108" stroke="#6B4F3A" stroke-width="1"/>
  <!-- 얼굴 -->
  <circle cx="60" cy="52" r="36" fill="#FFB67A" stroke="#6B4F3A" stroke-width="1.5" filter="url(#sh)"/>
  <!-- 부드러운 머리 (양쪽 살짝) -->
  <path d="M28 42 Q34 26 50 28 Q60 22 70 28 Q86 26 92 42 Q88 32 80 30 Q70 24 60 28 Q50 24 40 30 Q32 32 28 42 Z"
        fill="#A0633A" stroke="#6B4F3A" stroke-width="1.5"/>
  <!-- 안경 (작고 둥글게) -->
  <circle cx="48" cy="54" r="9" fill="#fff" fill-opacity="0.4" stroke="#6B4F3A" stroke-width="2"/>
  <circle cx="72" cy="54" r="9" fill="#fff" fill-opacity="0.4" stroke="#6B4F3A" stroke-width="2"/>
  <line x1="57" y1="54" x2="63" y2="54" stroke="#6B4F3A" stroke-width="2"/>
  <!-- 큰 눈 -->
  <ellipse cx="48" cy="55" rx="3.5" ry="4.5" fill="#3D2914"/>
  <ellipse cx="72" cy="55" rx="3.5" ry="4.5" fill="#3D2914"/>
  <ellipse cx="49" cy="53" rx="1.4" ry="1.8" fill="#fff"/>
  <ellipse cx="73" cy="53" rx="1.4" ry="1.8" fill="#fff"/>
  <!-- 볼 -->
  <ellipse cx="32" cy="64" rx="6" ry="4" fill="#FF8FA3" opacity="0.85"/>
  <ellipse cx="88" cy="64" rx="6" ry="4" fill="#FF8FA3" opacity="0.85"/>
  <!-- 미소 -->
  <path d="M52 72 Q60 78 68 72" fill="none" stroke="#3D2914" stroke-width="2" stroke-linecap="round"/>
</svg>
