<svg xmlns="http://www.w3.org/2000/svg" viewBox="0 0 120 120" width="120" height="120">
  <defs>
    <filter id="sh" x="-20%" y="-20%" width="140%" height="140%">
      <feDropShadow dx="0" dy="2" stdDeviation="2" flood-color="#6B4F3A" flood-opacity="0.18"/>
    </filter>
  </defs>
  <ellipse cx="60" cy="108" rx="42" ry="5" fill="#A67950" stroke="#6B4F3A" stroke-width="1.5"/>
  <path d="M60 108 L60 72" stroke="#5FAB6E" stroke-width="5" stroke-linecap="round"/>
  <path d="M60 80 Q42 74 28 60 Q42 56 58 68 Z" fill="#74D88A" stroke="#6B4F3A" stroke-width="1.5" stroke-linejoin="round"/>
  <path d="M60 80 Q78 74 92 60 Q78 56 62 68 Z" fill="#74D88A" stroke="#6B4F3A" stroke-width="1.5" stroke-linejoin="round"/>
  <circle cx="60" cy="50" r="28" fill="#9CE2A8" stroke="#6B4F3A" stroke-width="1.5" filter="url(#sh)"/>
  <ellipse cx="44" cy="58" rx="6" ry="4" fill="#FF8FA3" opacity="0.85"/>
  <ellipse cx="76" cy="58" rx="6" ry="4" fill="#FF8FA3" opacity="0.85"/>
  <ellipse cx="51" cy="48" rx="5" ry="6.5" fill="#3D2914"/>
  <ellipse cx="69" cy="48" rx="5" ry="6.5" fill="#3D2914"/>
  <ellipse cx="52.5" cy="45" rx="2" ry="2.5" fill="#fff"/>
  <ellipse cx="70.5" cy="45" rx="2" ry="2.5" fill="#fff"/>
  <circle cx="50" cy="51" r="0.8" fill="#fff"/>
  <circle cx="68" cy="51" r="0.8" fill="#fff"/>
  <path d="M55 62 Q60 66 65 62" fill="none" stroke="#3D2914" stroke-width="2" stroke-linecap="round"/>
</svg>
