<svg xmlns="http://www.w3.org/2000/svg" viewBox="0 0 120 120" width="120" height="120">
  <defs>
    <radialGradient id="dg2" cx="40%" cy="35%" r="60%">
      <stop offset="0%" stop-color="#A5D8FF"/>
      <stop offset="100%" stop-color="#4DABF7"/>
    </radialGradient>
  </defs>
  <g fill="#74C0FC" stroke="#1A1A1A" stroke-width="2">
    <ellipse cx="14" cy="50" rx="3" ry="5"/>
    <ellipse cx="108" cy="46" rx="3" ry="5"/>
    <ellipse cx="20" cy="92" rx="2.5" ry="4"/>
  </g>
  <path d="M60 12 C 60 12, 22 50, 22 76 C 22 96, 38 110, 60 110 C 82 110, 98 96, 98 76 C 98 50, 60 12, 60 12 Z"
        fill="url(#dg2)" stroke="#1A1A1A" stroke-width="3" stroke-linejoin="round"/>
  <ellipse cx="42" cy="58" rx="6" ry="8" fill="#fff" opacity="0.5"/>
  <circle cx="40" cy="82" r="5.5" fill="#FF8787" opacity="0.85"/>
  <circle cx="80" cy="82" r="5.5" fill="#FF8787" opacity="0.85"/>
  <path d="M44 64 Q50 58 56 64" fill="none" stroke="#1A1A1A" stroke-width="3" stroke-linecap="round"/>
  <path d="M64 64 Q70 58 76 64" fill="none" stroke="#1A1A1A" stroke-width="3" stroke-linecap="round"/>
  <ellipse cx="60" cy="86" rx="11" ry="8" fill="#1A1A1A"/>
  <ellipse cx="60" cy="89" rx="7" ry="3" fill="#FF6B6B"/>
</svg>
