<svg xmlns="http://www.w3.org/2000/svg" viewBox="0 0 120 120" width="120" height="120">
  <!-- 전구 (아이디어!) -->
  <g>
    <circle cx="100" cy="22" r="9" fill="#FFD43B" stroke="#1A1A1A" stroke-width="2.5"/>
    <rect x="96" y="29" width="8" height="3" fill="#1A1A1A"/>
    <line x1="100" y1="8" x2="100" y2="12" stroke="#FFD43B" stroke-width="2.5" stroke-linecap="round"/>
    <line x1="88" y1="16" x2="91" y2="18" stroke="#FFD43B" stroke-width="2.5" stroke-linecap="round"/>
    <line x1="112" y1="16" x2="109" y2="18" stroke="#FFD43B" stroke-width="2.5" stroke-linecap="round"/>
  </g>
  <rect x="32" y="92" width="56" height="18" rx="2" fill="#FCC419" stroke="#1A1A1A" stroke-width="2.5"/>
  <line x1="60" y1="92" x2="60" y2="110" stroke="#1A1A1A" stroke-width="1.5"/>
  <circle cx="60" cy="55" r="38" fill="#FF922B" stroke="#1A1A1A" stroke-width="3"/>
  <path d="M28 41 Q44 21 60 25 Q76 21 92 41 Q86 33 78 31 Q70 25 60 27 Q50 25 42 31 Q34 33 28 41 Z"
        fill="#5C3317" stroke="#1A1A1A" stroke-width="2"/>
  <circle cx="46" cy="55" r="11" fill="none" stroke="#1A1A1A" stroke-width="2.8"/>
  <circle cx="74" cy="55" r="11" fill="none" stroke="#1A1A1A" stroke-width="2.8"/>
  <line x1="57" y1="55" x2="63" y2="55" stroke="#1A1A1A" stroke-width="2.8"/>
  <!-- 반짝 눈 -->
  <path d="M40 50 L52 60 M52 50 L40 60" stroke="#1A1A1A" stroke-width="2.8" stroke-linecap="round"/>
  <path d="M68 50 L80 60 M80 50 L68 60" stroke="#1A1A1A" stroke-width="2.8" stroke-linecap="round"/>
  <circle cx="32" cy="65" r="5" fill="#FF8787" opacity="0.85"/>
  <circle cx="88" cy="65" r="5" fill="#FF8787" opacity="0.85"/>
  <!-- 활짝 입 -->
  <ellipse cx="60" cy="76" rx="11" ry="8" fill="#1A1A1A"/>
  <ellipse cx="60" cy="79" rx="7" ry="3" fill="#FF6B6B"/>
</svg>
