<svg xmlns="http://www.w3.org/2000/svg" viewBox="0 0 120 120" width="120" height="120">
  <defs>
    <filter id="sh" x="-20%" y="-20%" width="140%" height="140%">
      <feDropShadow dx="0" dy="2.5" stdDeviation="2" flood-color="#1A1A1A" flood-opacity="0.18"/>
    </filter>
  </defs>
  <path d="M28 84 Q8 84 8 64 Q8 50 24 48 Q24 30 44 28 Q50 14 60 14 Q70 14 76 28 Q96 30 96 48 Q112 50 112 64 Q112 84 92 84 Z"
        fill="#B197FC" stroke="#1A1A1A" stroke-width="2" stroke-linejoin="round" filter="url(#sh)"/>
  <path d="M36 64 C 33 60, 28 62, 30 68 C 31 71, 36 74, 38 76 C 40 74, 45 71, 46 68 C 48 62, 43 60, 40 64 Z" fill="#FF6B7A"/>
  <path d="M76 64 C 73 60, 68 62, 70 68 C 71 71, 76 74, 78 76 C 80 74, 85 71, 86 68 C 88 62, 83 60, 80 64 Z" fill="#FF6B7A"/>
  <g fill="#1A1A1A">
    <circle cx="48" cy="54" r="8"/>
    <circle cx="72" cy="54" r="8"/>
  </g>
  <g fill="#fff">
    <circle cx="50" cy="51" r="3"/>
    <circle cx="74" cy="51" r="3"/>
    <circle cx="46" cy="57" r="1.5"/>
    <circle cx="70" cy="57" r="1.5"/>
  </g>
  <path d="M54 68 Q57 74 60 71 Q63 74 66 68" fill="none" stroke="#1A1A1A" stroke-width="2.2" stroke-linecap="round" stroke-linejoin="round"/>
  <ellipse cx="44" cy="92" rx="6" ry="4" fill="#9775FA" stroke="#1A1A1A" stroke-width="1.5"/>
  <ellipse cx="76" cy="92" rx="6" ry="4" fill="#9775FA" stroke="#1A1A1A" stroke-width="1.5"/>
</svg>
