<svg xmlns="http://www.w3.org/2000/svg" viewBox="0 0 120 120" width="120" height="120">
  <defs>
    <filter id="sh" x="-20%" y="-20%" width="140%" height="140%">
      <feDropShadow dx="0" dy="2.5" stdDeviation="2" flood-color="#1A1A1A" flood-opacity="0.18"/>
    </filter>
  </defs>
  <ellipse cx="60" cy="114" rx="44" ry="5" fill="#8B5A2B" stroke="#1A1A1A" stroke-width="1.5"/>
  <path d="M60 114 L60 78" stroke="#37B24D" stroke-width="6" stroke-linecap="round"/>
  <path d="M60 86 Q38 80 22 64 Q40 56 58 72 Z" fill="#51CF66" stroke="#1A1A1A" stroke-width="1.8" stroke-linejoin="round"/>
  <path d="M60 86 Q82 80 98 64 Q80 56 62 72 Z" fill="#51CF66" stroke="#1A1A1A" stroke-width="1.8" stroke-linejoin="round"/>
  <!-- 본체 더 크게 (1.5배 효과) -->
  <circle cx="60" cy="44" r="34" fill="#69DB7C" stroke="#1A1A1A" stroke-width="2" filter="url(#sh)"/>
  <path d="M40 56 C 37 52, 32 54, 34 60 C 35 63, 40 66, 42 68 C 44 66, 49 63, 50 60 C 52 54, 47 52, 44 56 Z" fill="#FF6B7A"/>
  <path d="M76 56 C 73 52, 68 54, 70 60 C 71 63, 76 66, 78 68 C 80 66, 85 63, 86 60 C 88 54, 83 52, 80 56 Z" fill="#FF6B7A"/>
  <g fill="#1A1A1A">
    <circle cx="50" cy="46" r="8"/>
    <circle cx="70" cy="46" r="8"/>
  </g>
  <g fill="#fff">
    <circle cx="52" cy="43" r="3"/>
    <circle cx="72" cy="43" r="3"/>
    <circle cx="48" cy="49" r="1.5"/>
    <circle cx="68" cy="49" r="1.5"/>
  </g>
  <path d="M54 60 Q57 66 60 63 Q63 66 66 60" fill="none" stroke="#1A1A1A" stroke-width="2.2" stroke-linecap="round" stroke-linejoin="round"/>
</svg>
